<svg width="178" height="178" viewBox="0 0 178 178" fill="none" xmlns="http://www.w3.org/2000/svg">
<path d="M177.415 0H0V177.415H177.415V0Z" fill="white" fill-opacity="0.01"/>
<path d="M155.238 18.4805H22.1763C18.0937 18.4805 14.7841 21.7901 14.7841 25.8728V114.58C14.7841 118.663 18.0937 121.973 22.1763 121.973H155.238C159.32 121.973 162.63 118.663 162.63 114.58V25.8728C162.63 21.7901 159.32 18.4805 155.238 18.4805Z" stroke="#F3F3F3" stroke-width="14.7846" stroke-linecap="round" stroke-linejoin="round"/>
<path d="M114.581 81.3154V55.4424H62.8346V81.3154" stroke="#F3F3F3" stroke-width="14.7846" stroke-linecap="round" stroke-linejoin="round"/>
<path d="M66.5303 144.15H110.884" stroke="#F3F3F3" stroke-width="14.7846" stroke-linecap="round" stroke-linejoin="round"/>
<path d="M62.8346 121.973H114.581" stroke="#F3F3F3" stroke-width="14.7846" stroke-linecap="round" stroke-linejoin="round"/>
<path d="M118.276 99.7964L110.884 144.15L114.58 158.935" stroke="#F3F3F3" stroke-width="14.7846" stroke-linecap="round" stroke-linejoin="round"/>
<path d="M59.1382 99.7964L66.5305 144.15L62.8343 158.935" stroke="#F3F3F3" stroke-width="14.7846" stroke-linecap="round" stroke-linejoin="round"/>
<path d="M88.7074 99.7964V158.935" stroke="#F3F3F3" stroke-width="14.7846" stroke-linecap="round" stroke-linejoin="round"/>
<path d="M125.669 99.7964H51.7461" stroke="#F3F3F3" stroke-width="14.7846" stroke-linecap="round" stroke-linejoin="round"/>
</svg>
