<svg width="178" height="178" viewBox="0 0 178 178" fill="none" xmlns="http://www.w3.org/2000/svg">
<path d="M177.415 0H0V177.415H177.415V0Z" fill="white" fill-opacity="0.01"/>
<path d="M88.7074 162.631C129.534 162.631 162.63 129.534 162.63 88.7078C162.63 47.8813 129.534 14.7849 88.7074 14.7849C47.8809 14.7849 14.7845 47.8813 14.7845 88.7078C14.7845 129.534 47.8809 162.631 88.7074 162.631Z" stroke="#F3F3F3" stroke-width="14.7846"/>
<path d="M88.7074 14.7849C88.3345 39.4315 82.2832 57.9174 70.5535 70.2433C58.8234 82.5689 40.2336 88.7341 14.7845 88.7385" stroke="#F3F3F3" stroke-width="14.7846" stroke-linecap="round" stroke-linejoin="round"/>
<path d="M162.513 92.4229C138.442 90.7718 120.049 95.9169 107.334 107.858C94.6191 119.799 88.414 138.057 88.7182 162.63" stroke="#F3F3F3" stroke-width="14.7846" stroke-linecap="round"/>
</svg>
