<svg width="178" height="178" viewBox="0 0 178 178" fill="none" xmlns="http://www.w3.org/2000/svg">
<path d="M177.415 0H0V177.415H177.415V0Z" fill="white" fill-opacity="0.01"/>
<path fill-rule="evenodd" clip-rule="evenodd" d="M88.7071 161.152C119.873 161.152 146.221 136.459 154.844 108.112C156.782 101.738 170.022 101.738 170.022 87.9687C170.022 74.1987 156.657 73.4063 154.494 66.7085C145.526 38.9379 119.462 14.7849 88.7071 14.7849C57.9349 14.7849 31.8594 38.9604 22.9056 66.7551C20.7523 73.4392 7.39197 73.957 7.39197 87.9687C7.39197 101.98 20.6694 101.98 22.6752 108.453C31.4047 136.624 57.6662 161.152 88.7071 161.152Z" stroke="#F3F3F3" stroke-width="14.7846"/>
<path d="M154.494 66.7085C145.526 38.9379 119.462 14.7849 88.7072 14.7849" stroke="#F3F3F3" stroke-width="14.7846" stroke-linecap="round"/>
<path d="M70.5973 79.8358C70.5973 82.8899 69.7686 85.5715 68.5259 87.4354C67.2748 89.3123 65.749 90.185 64.3138 90.185C62.8786 90.185 61.3528 89.3123 60.1017 87.4354C58.859 85.5715 58.0304 82.8899 58.0304 79.8358C58.0304 76.7813 58.859 74.1001 60.1017 72.2361C61.3528 70.3592 62.8786 69.4866 64.3138 69.4866C65.749 69.4866 67.2748 70.3592 68.5259 72.2361C69.7686 74.1001 70.5973 76.7813 70.5973 79.8358Z" stroke="#F3F3F3" stroke-width="3.69614"/>
<path d="M119.385 79.8358C119.385 82.8899 118.556 85.5715 117.314 87.4354C116.062 89.3123 114.537 90.185 113.101 90.185C111.666 90.185 110.14 89.3123 108.889 87.4354C107.647 85.5715 106.818 82.8899 106.818 79.8358C106.818 76.7813 107.647 74.1001 108.889 72.2361C110.14 70.3592 111.666 69.4866 113.101 69.4866C114.537 69.4866 116.062 70.3592 117.314 72.2361C118.556 74.1001 119.385 76.7813 119.385 79.8358Z" stroke="#F3F3F3" stroke-width="3.69614"/>
<path fill-rule="evenodd" clip-rule="evenodd" d="M68.3713 117.354C75.5082 122.158 82.2984 124.56 88.7422 124.56C95.1791 124.56 101.561 122.164 107.888 117.37" fill="#333333"/>
<path d="M68.3713 117.354C75.5082 122.158 82.2984 124.56 88.7422 124.56C95.1791 124.56 101.561 122.164 107.888 117.37" stroke="#F3F3F3" stroke-width="14.7846" stroke-linecap="round"/>
<path d="M117.273 22.917C118.264 30.0634 116.084 35.2855 110.734 38.5833C105.384 41.8806 96.6922 43.426 84.6579 43.219" stroke="#F3F3F3" stroke-width="14.7846" stroke-linecap="round"/>
</svg>
